<svg xmlns="http://www.w3.org/2000/svg" xmlns:xlink="http://www.w3.org/1999/xlink" id="Layer_1" x="0" y="0" version="1.1" viewBox="0 0 24 24" style="enable-background:new 0 0 24 24" xml:space="preserve"><style type="text/css">.st0{fill:url(#Shape_2_)}</style><g id="Octicons_1_"><g id="issue-opened"><linearGradient id="Shape_2_" x1="1.162" x2="22.838" y1="12" y2="12" gradientUnits="userSpaceOnUse"><stop offset="0" style="stop-color:#4592c4"/><stop offset="1" style="stop-color:#545acd"/></linearGradient><path id="Shape_1_" d="M12,3.2c4.9,0,8.8,4,8.8,8.8s-4,8.8-8.8,8.8s-8.8-4-8.8-8.8S7.1,3.2,12,3.2L12,3.2z M12,1.2 C6,1.2,1.2,6,1.2,12S6,22.8,12,22.8S22.8,18,22.8,12S18,1.2,12,1.2L12,1.2z M13.5,5.8h-3.1v7.7h3.1V5.8L13.5,5.8z M13.5,15.1h-3.1 v3.1h3.1V15.1L13.5,15.1z" class="st0"/></g></g></svg>